<?xml version="1.0" encoding="UTF-8"?>
<svg width="248px" height="26px" viewBox="0 0 248 26" version="1.1" xmlns="http://www.w3.org/2000/svg" xmlns:xlink="http://www.w3.org/1999/xlink">
    <!-- Generator: Sketch 48 (47235) - http://www.bohemiancoding.com/sketch -->
    <title>SEGHETTIWAXLER</title>
    <desc>Created with Sketch.</desc>
    <defs></defs>
    <g id="Home-1b" stroke="none" stroke-width="1" fill="none" fill-rule="evenodd" transform="translate(-30.000000, -30.000000)">
        <path d="M36.7,55.42 C32.85,55.42 30.47,52.83 30.295,49.015 L31.87,49.015 C32.08,52.13 33.83,53.88 36.665,53.88 C39.71,53.88 41.355,51.92 41.355,49.19 C41.355,43.1 30.575,42.925 30.575,35.855 C30.575,32.53 33.06,30.08 36.595,30.08 C40.2,30.08 42.51,32.6 42.72,36.345 L41.11,36.345 C40.9,33.195 39.185,31.62 36.665,31.62 C33.935,31.62 32.185,33.3 32.185,35.855 C32.185,41.84 42.965,41.91 42.965,49.19 C42.965,52.48 40.725,55.42 36.7,55.42 Z M50.6650001,53.53 L60.4300001,53.53 L60.4300001,55 L49.0900001,55 L49.0900001,30.5 L60.1850001,30.5 L60.1850001,31.97 L50.6650001,31.97 L50.6650001,41.805 L59.5200001,41.805 L59.5200001,43.275 L50.6650001,43.275 L50.6650001,53.53 Z M72.4000003,55.35 C68.6550003,55.35 65.8900003,52.83 65.8900003,48.175 L65.8900003,37.43 C65.8900003,32.6 68.5150003,30.15 72.2950003,30.15 C76.0050003,30.15 78.6650003,32.46 78.8050003,36.94 L77.2300003,36.94 C77.0900003,33.265 75.0950003,31.655 72.2950003,31.655 C69.4250003,31.655 67.4300003,33.44 67.4300003,37.43 L67.4300003,48.175 C67.4300003,51.99 69.5650003,53.845 72.4000003,53.845 C75.3400003,53.845 77.4750003,51.99 77.4750003,48.385 L77.4750003,43.59 L72.3650003,43.59 L72.3650003,42.155 L79.0150003,42.155 L79.0150003,48.385 C79.0150003,52.83 76.1800003,55.35 72.4000003,55.35 Z M96.5850004,30.5 L98.1950004,30.5 L98.1950004,55 L96.5850004,55 L96.5850004,43.275 L87.1700004,43.275 L87.1700004,55 L85.5950004,55 L85.5950004,30.5 L87.1700004,30.5 L87.1700004,41.77 L96.5850004,41.77 L96.5850004,30.5 Z M107.505001,53.53 L117.270001,53.53 L117.270001,55 L105.930001,55 L105.930001,30.5 L117.025001,30.5 L117.025001,31.97 L107.505001,31.97 L107.505001,41.805 L116.360001,41.805 L116.360001,43.275 L107.505001,43.275 L107.505001,53.53 Z M134.105001,30.5 L134.105001,32.005 L128.575001,32.005 L128.575001,55 L127.000001,55 L127.000001,32.005 L121.540001,32.005 L121.540001,30.5 L134.105001,30.5 Z M150.240001,30.5 L150.240001,32.005 L144.710001,32.005 L144.710001,55 L143.135001,55 L143.135001,32.005 L137.675001,32.005 L137.675001,30.5 L150.240001,30.5 Z M155.910001,30.5 L157.485001,30.5 L157.485001,55 L155.910001,55 L155.910001,30.5 Z M184.785001,30.5 L188.460001,30.5 L182.965001,55 L179.185001,55 L176.805001,44.185 C176.280001,41.875 175.790001,38.305 175.650001,36.31 L175.510001,36.31 C175.335001,38.305 174.845001,41.875 174.320001,44.185 L171.940001,55 L168.160001,55 L162.665001,30.5 L166.340001,30.5 L168.860001,43.905 C169.175001,45.69 169.770001,48.875 169.980001,50.415 L170.120001,50.415 C170.330001,48.875 170.855001,45.865 171.240001,43.73 L173.690001,30.885 L177.435001,30.885 L179.885001,43.73 C180.270001,45.865 180.795001,48.875 181.005001,50.415 L181.145001,50.415 C181.355001,48.875 181.950001,45.69 182.265001,43.905 L184.785001,30.5 Z M202.267501,55 L201.112501,50.065 L194.637501,50.065 L193.517501,55 L189.807501,55 L195.967501,30.5 L199.782501,30.5 L205.942501,55 L202.267501,55 Z M195.407501,46.775 L200.377501,46.775 L198.837501,40.195 C198.487501,38.585 198.102501,36.24 197.927501,34.945 L197.822501,34.945 C197.647501,36.24 197.297501,38.585 196.912501,40.195 L195.407501,46.775 Z M223.845001,55 L219.925001,55 L216.075001,45.935 L212.190001,55 L208.270001,55 L214.115001,42.295 L208.620001,30.5 L212.505001,30.5 L216.075001,38.795 L219.610001,30.5 L223.495001,30.5 L218.000001,42.295 L223.845001,55 Z M232.052501,51.64 L240.172501,51.64 L240.172501,55 L228.517501,55 L228.517501,30.5 L232.052501,30.5 L232.052501,51.64 Z M248.240002,51.675 L257.060002,51.675 L257.060002,55 L244.705002,55 L244.705002,30.5 L256.710002,30.5 L256.710002,33.825 L248.240002,33.825 L248.240002,40.93 L256.045002,40.93 L256.045002,44.185 L248.240002,44.185 L248.240002,51.675 Z M273.352502,55 L268.417502,46.11 L266.212502,46.11 L266.212502,55 L262.677502,55 L262.677502,30.5 L269.012502,30.5 C273.702502,30.5 276.362502,33.3 276.362502,38.165 C276.362502,41.98 274.752502,44.605 271.952502,45.62 L277.272502,55 L273.352502,55 Z M266.212502,33.86 L266.212502,42.75 L268.942502,42.75 C271.427502,42.75 272.722502,41.14 272.722502,38.235 C272.722502,35.33 271.427502,33.86 268.977502,33.86 L266.212502,33.86 Z" id="SEGHETTIWAXLER" fill="#FFFFFF"></path>
    </g>
</svg>